<?xml version="1.0" encoding="utf-8"?>
<!-- Generator: Adobe Illustrator 17.1.0, SVG Export Plug-In . SVG Version: 6.00 Build 0)  -->
<!DOCTYPE svg PUBLIC "-//W3C//DTD SVG 1.1//EN" "http://www.w3.org/Graphics/SVG/1.1/DTD/svg11.dtd">
<svg version="1.1" xmlns="http://www.w3.org/2000/svg" xmlns:xlink="http://www.w3.org/1999/xlink" x="0px" y="0px"
	 viewBox="0 0 52.4 52.4" enable-background="new 0 0 52.4 52.4" xml:space="preserve">
<g id="MM" display="none">
	<polygon display="inline" points="5.8,11.4 25.9,23.9 45.9,11.4 45.9,38.6 42.8,38.6 42.8,17.1 25.9,27.8 8.9,17.1 8.9,38.6 
		5.8,38.6 	"/>
	<polygon display="inline" points="13.5,41.2 13.5,14.5 25.9,22.2 38,14.5 38,41.2 41.1,41.2 41.1,9 25.9,18.6 10.4,9 10.4,41.2 	
		"/>
</g>
<g id="negativi" display="none">
	<rect x="8.9" y="12.5" display="inline" fill="#E30613" width="1.5" height="8.6"/>
	<rect x="13.5" y="15.9" display="inline" fill="#E30613" width="1.5" height="8.6"/>
	<polygon display="inline" fill="#E30613" points="41.2,14.3 37.1,16.9 37.1,15.1 41.2,12.5 	"/>
	<polygon display="inline" fill="#E30613" points="41.7,19.7 37.5,22.3 37.5,20.5 41.7,17.9 	"/>
</g>
<g id="risultato" display="none">
	<g display="inline">
		<polygon points="5.8,38.6 8.9,38.6 8.9,13.4 5.8,11.4 		"/>
		<polygon points="41.2,14.3 41.1,14.4 40.2,15 38,16.3 37.1,16.9 25.9,23.9 15,17.1 15,21 25.9,27.8 37.5,20.5 38,20.2 38,20.2 
			41.1,18.2 41.1,18.2 42.8,17.1 42.8,38.6 45.9,38.6 45.9,11.4 		"/>
		<polygon points="38,41.2 41.1,41.2 41.1,20.1 38,22 		"/>
		<polygon points="38,14.5 38,14.5 41.1,12.6 41.1,9 25.9,18.6 10.4,9 10.4,41.2 13.5,41.2 13.5,14.5 25.9,22.2 		"/>
	</g>
</g>
<g id="Livello_5" opacity="0.6">
	<path d="M26.2,0.3C11.9,0.3,0.3,11.9,0.3,26.2c0,14.3,11.6,25.9,25.9,25.9c14.3,0,25.9-11.6,25.9-25.9C52.1,11.9,40.5,0.3,26.2,0.3
		z M10.6,38.6H7.7V11.4l2.9,1.9V38.6z M14.8,41.2H12V9l14.1,9.6l14-9.6v3.6l-2.9,2v0l-11.1,7.7l-11.3-7.7V41.2z M40.1,41.2h-2.9V22
		l2.9-1.9V41.2z M44.5,38.6h-2.9V17.1l-1.5,1.1v0l-2.9,2v0l-0.4,0.3l-10.7,7.3l-10-6.9v-3.9l10,6.7l10.3-6.9l0.9-0.6l2-1.3l0.9-0.6
		l0.1-0.1l4.3-2.9V38.6z"/>
</g>
</svg>
